<svg width="79" height="60" viewBox="0 0 79 60" fill="none" xmlns="http://www.w3.org/2000/svg">
<path d="M73.78 59.22L31.61 9.01999C31.06 8.36999 30.25 7.98999 29.4 7.98999H23.89C22.29 7.98999 21 9.27999 21 10.88V59.22H29.54V46.78C29.54 46.41 29.66 46.1 29.9 45.86C30.13 45.62 30.44 45.5 30.83 45.5H50.96L62.49 59.22H73.79H73.78ZM35.75 38.15L29.54 44.83V20.01L44.78 38.15H35.75Z" fill="#DEE0FC"/>
<path d="M0.219971 59.22V8H8.68997V59.23H0.219971V59.22Z" fill="#DEE0FC"/>
<path d="M78.8 16.79V17.13C71.86 17.76 69.2 20.43 68.57 27.36H68.23C67.6 20.43 64.94 17.76 58 17.13V16.79C64.94 16.16 67.6 13.5 68.24 6.56H68.56C69.2 13.5 71.86 16.16 78.8 16.79Z" fill="#DEE0FC"/>
<path d="M59.59 3.63V3.95C57.34 4.32 56.32 5.34 55.95 7.59H55.63C55.26 5.34 54.24 4.32 52 3.95V3.63C54.24 3.26 55.27 2.24 55.63 0H55.95C56.31 2.24 57.34 3.27 59.59 3.63Z" fill="#DEE0FC"/>
</svg>
